G04 Layer_Physical_Order=2*
G04 Layer_Color=16711680*
%FSLAX44Y44*%
%MOMM*%
G71*
G01*
G75*
%ADD14C,2.0000*%
%ADD15C,1.0000*%
%ADD16C,3.0000*%
%ADD17C,1.2000*%
%ADD18C,1.0000*%
%ADD19C,0.8000*%
%ADD20R,4.0000X2.5000*%
%ADD21R,1.6000X3.5000*%
%ADD22R,3.0000X5.4000*%
G36*
X91242Y-5109D02*
X93668Y-5592D01*
Y-298668D01*
X-93668D01*
Y-82540D01*
X-49960D01*
Y-52460D01*
X-59714D01*
Y-35296D01*
X-38459Y-14041D01*
X-35688Y-9893D01*
X-34714Y-5000D01*
Y-2500D01*
X-5664D01*
X-5283Y-2754D01*
X0Y-3805D01*
X5283Y-2754D01*
X5664Y-2500D01*
X87336D01*
X91242Y-5109D01*
D02*
G37*
G36*
X-10000Y10000D02*
X-85000D01*
Y110000D01*
X-65000D01*
Y60000D01*
Y59140D01*
X-64747Y56569D01*
X-63746Y53271D01*
X-62121Y50230D01*
X-59934Y47566D01*
X-57270Y45379D01*
X-54229Y43754D01*
X-50931Y42753D01*
X-47500Y42415D01*
X-44069Y42753D01*
X-40771Y43754D01*
X-37731Y45379D01*
X-35066Y47566D01*
X-32879Y50230D01*
X-31254Y53271D01*
X-30253Y56569D01*
X-30000Y59140D01*
Y60000D01*
Y110000D01*
X-10000D01*
Y10000D01*
D02*
G37*
G36*
X85000D02*
X10000D01*
Y110000D01*
X30000D01*
Y60000D01*
Y59140D01*
X30253Y56569D01*
X31254Y53271D01*
X32879Y50230D01*
X35066Y47566D01*
X37731Y45379D01*
X40771Y43754D01*
X44069Y42753D01*
X47500Y42415D01*
X50931Y42753D01*
X54229Y43754D01*
X57270Y45379D01*
X59934Y47566D01*
X62121Y50230D01*
X63746Y53271D01*
X64747Y56569D01*
X65000Y59140D01*
Y60000D01*
Y110000D01*
X85000D01*
Y10000D01*
D02*
G37*
%LPC*%
G36*
X6230Y-68770D02*
X-15040D01*
Y-82540D01*
X6230D01*
Y-68770D01*
D02*
G37*
G36*
X30040D02*
X8770D01*
Y-82540D01*
X30040D01*
Y-68770D01*
D02*
G37*
G36*
X70540Y-84460D02*
X49460D01*
Y-88889D01*
X-40450D01*
X-46221Y-91279D01*
X-48611Y-97050D01*
X-46221Y-102821D01*
X-40450Y-105211D01*
X49460D01*
Y-107458D01*
X43459Y-113459D01*
X40688Y-117607D01*
X39714Y-122500D01*
Y-162960D01*
X32460D01*
Y-179714D01*
X0D01*
X-4893Y-180688D01*
X-6967Y-182073D01*
X-9041Y-183459D01*
X-29041Y-203459D01*
X-31812Y-207607D01*
X-32460Y-210863D01*
Y-162960D01*
X-67540D01*
Y-184339D01*
X-77500D01*
X-83271Y-186729D01*
X-85661Y-192500D01*
X-83271Y-198271D01*
X-77500Y-200661D01*
X-67540D01*
Y-222040D01*
X-32460D01*
Y-214137D01*
X-31812Y-217393D01*
X-29041Y-221541D01*
X-24893Y-224312D01*
X-20000Y-225286D01*
X-15107Y-224312D01*
X-10959Y-221541D01*
X5296Y-205286D01*
X32460D01*
Y-222040D01*
X67540D01*
Y-162960D01*
X65286D01*
Y-127796D01*
X68542Y-124540D01*
X70540D01*
Y-122542D01*
X74041Y-119041D01*
X75427Y-116967D01*
X76812Y-114893D01*
X77786Y-110000D01*
Y-104500D01*
X76812Y-99607D01*
X74041Y-95459D01*
X70540Y-93120D01*
Y-84460D01*
D02*
G37*
G36*
X-65700Y-257116D02*
X-72544Y-258478D01*
X-78346Y-262354D01*
X-82222Y-268156D01*
X-83584Y-275000D01*
X-82222Y-281844D01*
X-78346Y-287646D01*
X-72544Y-291522D01*
X-65700Y-292884D01*
X-58856Y-291522D01*
X-53054Y-287646D01*
X-49178Y-281844D01*
X-47816Y-275000D01*
X-49178Y-268156D01*
X-53054Y-262354D01*
X-58856Y-258478D01*
X-65700Y-257116D01*
D02*
G37*
G36*
X65700D02*
X58856Y-258478D01*
X53054Y-262354D01*
X49178Y-268156D01*
X47816Y-275000D01*
X49178Y-281844D01*
X53054Y-287646D01*
X58856Y-291522D01*
X65700Y-292884D01*
X72544Y-291522D01*
X78346Y-287646D01*
X82222Y-281844D01*
X83584Y-275000D01*
X82222Y-268156D01*
X78346Y-262354D01*
X72544Y-258478D01*
X65700Y-257116D01*
D02*
G37*
G36*
X58730Y-51770D02*
X49460D01*
Y-70540D01*
X58730D01*
Y-51770D01*
D02*
G37*
G36*
Y-30460D02*
X49460D01*
Y-49230D01*
X58730D01*
Y-30460D01*
D02*
G37*
G36*
X70540D02*
X61270D01*
Y-49230D01*
X70540D01*
Y-30460D01*
D02*
G37*
G36*
X30040Y-52460D02*
X8770D01*
Y-66230D01*
X30040D01*
Y-52460D01*
D02*
G37*
G36*
X70540Y-51770D02*
X61270D01*
Y-70540D01*
X70540D01*
Y-51770D01*
D02*
G37*
G36*
X6230Y-52460D02*
X-15040D01*
Y-66230D01*
X6230D01*
Y-52460D01*
D02*
G37*
%LPD*%
D14*
X50000Y-192500D02*
X52500Y-190000D01*
Y-122500D01*
X65000Y-110000D01*
Y-104500D01*
Y-50500D02*
Y15000D01*
X63000Y-52500D02*
X65000Y-50500D01*
X35000Y-52500D02*
X63000D01*
X20000Y-67500D02*
X35000Y-52500D01*
X7500Y-67500D02*
X20000D01*
X-72500D02*
Y-30000D01*
X-47500Y-5000D01*
Y20000D01*
X-20000Y-212500D02*
X0Y-192500D01*
X50000D01*
D15*
X-77500D02*
X-50000D01*
X57550Y-97050D02*
X65000Y-104500D01*
X-40450Y-97050D02*
X57550D01*
D16*
X-65700Y-275000D02*
D03*
X65700D02*
D03*
D17*
X-17500Y-210000D02*
D03*
D18*
X-77500Y-192500D02*
D03*
X-40450Y-97050D02*
D03*
D19*
X20000Y100000D02*
D03*
Y82500D02*
D03*
Y65000D02*
D03*
Y47500D02*
D03*
Y30000D02*
D03*
X47500D02*
D03*
X75000D02*
D03*
Y47500D02*
D03*
Y65000D02*
D03*
Y82500D02*
D03*
Y100000D02*
D03*
X-20000D02*
D03*
Y82500D02*
D03*
Y65000D02*
D03*
Y47500D02*
D03*
Y30000D02*
D03*
X-47500D02*
D03*
X-75000D02*
D03*
Y47500D02*
D03*
Y65000D02*
D03*
Y82500D02*
D03*
Y100000D02*
D03*
D20*
X-72500Y-67500D02*
D03*
X7500D02*
D03*
D21*
X60000Y-50500D02*
D03*
Y-104500D02*
D03*
D22*
X-50000Y-192500D02*
D03*
X50000D02*
D03*
M02*
