G04 Layer_Color=16711935*
%FSLAX44Y44*%
%MOMM*%
G71*
G01*
G75*
%ADD32C,3.2032*%
%ADD33C,1.4032*%
%ADD34C,1.2032*%
%ADD35C,1.0032*%
%ADD36R,4.2032X2.7032*%
%ADD37R,1.8032X3.7032*%
%ADD38R,3.2032X5.6032*%
G36*
X-10000Y10000D02*
X-85000D01*
Y110000D01*
X-65000D01*
Y60000D01*
Y59140D01*
X-64747Y56569D01*
X-63746Y53271D01*
X-62121Y50230D01*
X-59934Y47566D01*
X-57270Y45379D01*
X-54229Y43754D01*
X-50931Y42753D01*
X-47500Y42415D01*
X-44069Y42753D01*
X-40771Y43754D01*
X-37731Y45379D01*
X-35066Y47566D01*
X-32879Y50230D01*
X-31254Y53271D01*
X-30253Y56569D01*
X-30000Y59140D01*
Y60000D01*
Y110000D01*
X-10000D01*
Y10000D01*
D02*
G37*
G36*
X85000D02*
X10000D01*
Y110000D01*
X30000D01*
Y60000D01*
Y59140D01*
X30253Y56569D01*
X31254Y53271D01*
X32879Y50230D01*
X35066Y47566D01*
X37731Y45379D01*
X40771Y43754D01*
X44069Y42753D01*
X47500Y42415D01*
X50931Y42753D01*
X54229Y43754D01*
X57270Y45379D01*
X59934Y47566D01*
X62121Y50230D01*
X63746Y53271D01*
X64747Y56569D01*
X65000Y59140D01*
Y60000D01*
Y110000D01*
X85000D01*
Y10000D01*
D02*
G37*
D32*
X-65700Y-275000D02*
D03*
X65700D02*
D03*
D33*
X-17500Y-210000D02*
D03*
D34*
X-77500Y-192500D02*
D03*
X-40450Y-97050D02*
D03*
D35*
X20000Y100000D02*
D03*
Y82500D02*
D03*
Y65000D02*
D03*
Y47500D02*
D03*
Y30000D02*
D03*
X47500D02*
D03*
X75000D02*
D03*
Y47500D02*
D03*
Y65000D02*
D03*
Y82500D02*
D03*
Y100000D02*
D03*
X-20000D02*
D03*
Y82500D02*
D03*
Y65000D02*
D03*
Y47500D02*
D03*
Y30000D02*
D03*
X-47500D02*
D03*
X-75000D02*
D03*
Y47500D02*
D03*
Y65000D02*
D03*
Y82500D02*
D03*
Y100000D02*
D03*
D36*
X-72500Y-67500D02*
D03*
X7500D02*
D03*
D37*
X60000Y-50500D02*
D03*
Y-104500D02*
D03*
D38*
X-50000Y-192500D02*
D03*
X50000D02*
D03*
M02*
