M48
;Layer_Color=9474304
;FILE_FORMAT=4:4
METRIC
;TYPE=PLATED
T1F00S00C0.3000
T2F00S00C0.6000
T3F00S00C0.8000
T4F00S00C2.3000
%
T01
X-00075000Y00030000
Y00047500
Y00065000
Y00082500
X-00020000
Y00065000
Y00047500
Y00030000
X-00047500
X00020000
Y00047500
Y00065000
Y00082500
X00075000
Y00065000
Y00047500
Y00030000
X00047500
X00020000Y00100000
X-00020000
X-00075000
X00075000
T02
X-00077500Y-00192500
X-00040450Y-00097050
T03
X-00017500Y-00210000
T04
X-00065700Y-00275000
X00065700
M30
