G04 Layer_Color=8388736*
%FSLAX44Y44*%
%MOMM*%
G71*
G01*
G75*
G04:AMPARAMS|DCode=28|XSize=10.7032mm|YSize=10.7032mm|CornerRadius=1.4141mm|HoleSize=0mm|Usage=FLASHONLY|Rotation=180.000|XOffset=0mm|YOffset=0mm|HoleType=Round|Shape=RoundedRectangle|*
%AMROUNDEDRECTD28*
21,1,10.7032,7.8750,0,0,180.0*
21,1,7.8750,10.7032,0,0,180.0*
1,1,2.8282,-3.9375,3.9375*
1,1,2.8282,3.9375,3.9375*
1,1,2.8282,3.9375,-3.9375*
1,1,2.8282,-3.9375,-3.9375*
%
%ADD28ROUNDEDRECTD28*%
G04:AMPARAMS|DCode=29|XSize=3.1532mm|YSize=1.2532mm|CornerRadius=0.2329mm|HoleSize=0mm|Usage=FLASHONLY|Rotation=180.000|XOffset=0mm|YOffset=0mm|HoleType=Round|Shape=RoundedRectangle|*
%AMROUNDEDRECTD29*
21,1,3.1532,0.7875,0,0,180.0*
21,1,2.6875,1.2532,0,0,180.0*
1,1,0.4657,-1.3438,0.3937*
1,1,0.4657,1.3438,0.3937*
1,1,0.4657,1.3438,-0.3937*
1,1,0.4657,-1.3438,-0.3937*
%
%ADD29ROUNDEDRECTD29*%
G04:AMPARAMS|DCode=30|XSize=2.7032mm|YSize=3.5032mm|CornerRadius=0.4141mm|HoleSize=0mm|Usage=FLASHONLY|Rotation=180.000|XOffset=0mm|YOffset=0mm|HoleType=Round|Shape=RoundedRectangle|*
%AMROUNDEDRECTD30*
21,1,2.7032,2.6750,0,0,180.0*
21,1,1.8750,3.5032,0,0,180.0*
1,1,0.8282,-0.9375,1.3375*
1,1,0.8282,0.9375,1.3375*
1,1,0.8282,0.9375,-1.3375*
1,1,0.8282,-0.9375,-1.3375*
%
%ADD30ROUNDEDRECTD30*%
%ADD31R,1.0032X3.0232*%
%ADD32C,3.2032*%
%ADD33C,1.4032*%
%ADD34C,1.2032*%
%ADD35C,1.0032*%
G36*
X-10000Y10000D02*
X-85000D01*
Y110000D01*
X-65000D01*
Y60000D01*
Y59140D01*
X-64747Y56569D01*
X-63746Y53271D01*
X-62121Y50230D01*
X-59934Y47566D01*
X-57270Y45379D01*
X-54229Y43754D01*
X-50931Y42753D01*
X-47500Y42415D01*
X-44069Y42753D01*
X-40771Y43754D01*
X-37731Y45379D01*
X-35066Y47566D01*
X-32879Y50230D01*
X-31254Y53271D01*
X-30253Y56569D01*
X-30000Y59140D01*
Y60000D01*
Y110000D01*
X-10000D01*
Y10000D01*
D02*
G37*
G36*
X85000D02*
X10000D01*
Y110000D01*
X30000D01*
Y60000D01*
Y59140D01*
X30253Y56569D01*
X31254Y53271D01*
X32879Y50230D01*
X35066Y47566D01*
X37731Y45379D01*
X40771Y43754D01*
X44069Y42753D01*
X47500Y42415D01*
X50931Y42753D01*
X54229Y43754D01*
X57270Y45379D01*
X59934Y47566D01*
X62121Y50230D01*
X63746Y53271D01*
X64747Y56569D01*
X65000Y59140D01*
Y60000D01*
Y110000D01*
X85000D01*
Y10000D01*
D02*
G37*
D28*
X30000Y-80000D02*
D03*
D29*
X-64000Y-114100D02*
D03*
Y-45900D02*
D03*
Y-62950D02*
D03*
Y-80000D02*
D03*
Y-97050D02*
D03*
D30*
X31500Y-175000D02*
D03*
X-36500D02*
D03*
D31*
X-10000Y-237900D02*
D03*
X10000D02*
D03*
X-35000D02*
D03*
X35000D02*
D03*
D32*
X-65700Y-275000D02*
D03*
X65700D02*
D03*
D33*
X-17500Y-210000D02*
D03*
D34*
X-77500Y-192500D02*
D03*
X-40450Y-97050D02*
D03*
D35*
X20000Y100000D02*
D03*
Y82500D02*
D03*
Y65000D02*
D03*
Y47500D02*
D03*
Y30000D02*
D03*
X47500D02*
D03*
X75000D02*
D03*
Y47500D02*
D03*
Y65000D02*
D03*
Y82500D02*
D03*
Y100000D02*
D03*
X-20000D02*
D03*
Y82500D02*
D03*
Y65000D02*
D03*
Y47500D02*
D03*
Y30000D02*
D03*
X-47500D02*
D03*
X-75000D02*
D03*
Y47500D02*
D03*
Y65000D02*
D03*
Y82500D02*
D03*
Y100000D02*
D03*
M02*
