G04 Layer_Color=32896*
%FSLAX44Y44*%
%MOMM*%
G71*
G01*
G75*
%ADD25C,0.1500*%
%ADD26C,0.2000*%
D25*
X21654Y-1294D02*
X22987Y39D01*
X25653D01*
X26986Y-1294D01*
Y-6625D01*
X25653Y-7958D01*
X22987D01*
X21654Y-6625D01*
X18989Y-7958D02*
X16323D01*
X17656D01*
Y39D01*
X18989Y-1294D01*
X87266Y-18793D02*
X88599Y-17461D01*
X91265D01*
X92598Y-18793D01*
Y-24125D01*
X91265Y-25458D01*
X88599D01*
X87266Y-24125D01*
X79269Y-25458D02*
X84601D01*
X79269Y-20126D01*
Y-18793D01*
X80602Y-17461D01*
X83268D01*
X84601Y-18793D01*
X64578Y-114809D02*
Y-122806D01*
X59246D01*
X56581D02*
X53915D01*
X55248D01*
Y-114809D01*
X56581Y-116142D01*
D26*
X19500Y-119500D02*
Y-15500D01*
X-74500D02*
X19500D01*
X-84500Y-25500D02*
X-74500Y-15500D01*
X-74500Y-119500D02*
X19500D01*
X-84500Y-109500D02*
X-74500Y-119500D01*
X-84500Y-109500D02*
Y-25500D01*
X87000Y-110500D02*
X93000Y-104500D01*
Y-44500D01*
X27000Y-104500D02*
X33000Y-110500D01*
X49000D01*
X71000D02*
X87000D01*
X71000Y-44500D02*
X93000D01*
X27000D02*
X49000D01*
X27000Y-104500D02*
Y-44500D01*
X-62000Y-254500D02*
Y-130500D01*
Y-254500D02*
X62000D01*
Y-130500D01*
X-62000D02*
X62000D01*
M02*
